<svg xmlns="http://www.w3.org/2000/svg" xmlns:xlink="http://www.w3.org/1999/xlink" viewBox="0 0 3710 3710"><defs><style>.cls-1,.cls-11,.cls-13,.cls-14,.cls-15,.cls-16,.cls-20,.cls-9{fill:#fff;}.cls-2{opacity:0.3;fill:url(#linear-gradient);}.cls-3{fill:#eac4f9;}.cls-4{fill:url(#linear-gradient-2);}.cls-5{fill:url(#linear-gradient-3);}.cls-6{fill:url(#linear-gradient-4);}.cls-7{fill:url(#linear-gradient-5);}.cls-8{fill:url(#linear-gradient-6);}.cls-9{opacity:0.65;}.cls-10{fill:url(#linear-gradient-7);}.cls-11{opacity:0.37;}.cls-12{fill:url(#linear-gradient-8);}.cls-13{opacity:0.25;}.cls-14{opacity:0.85;}.cls-15{opacity:0.59;}.cls-16{opacity:0.4;}.cls-17{fill:url(#linear-gradient-9);}.cls-18{fill:url(#_33);}.cls-19{fill:url(#linear-gradient-10);}.cls-20{opacity:0.27;}.cls-21{fill:url(#linear-gradient-11);}.cls-22{fill:url(#linear-gradient-12);}.cls-23{fill:url(#linear-gradient-13);}.cls-24{fill:url(#linear-gradient-14);}.cls-25{fill:url(#linear-gradient-15);}.cls-26{fill:url(#linear-gradient-16);}.cls-27{fill:url(#linear-gradient-17);}.cls-28{fill:url(#linear-gradient-18);}.cls-29{fill:url(#linear-gradient-19);}.cls-30{fill:url(#linear-gradient-20);}.cls-31{fill:url(#linear-gradient-21);}.cls-32{fill:url(#linear-gradient-22);}.cls-33{fill:url(#linear-gradient-23);}.cls-34{fill:url(#linear-gradient-24);}.cls-35{fill:url(#linear-gradient-25);}.cls-36{fill:url(#linear-gradient-26);}.cls-37{fill:url(#linear-gradient-27);}.cls-38{fill:url(#linear-gradient-28);}.cls-39{fill:url(#linear-gradient-29);}.cls-40{fill:url(#linear-gradient-30);}.cls-41{fill:url(#linear-gradient-31);}.cls-42{fill:url(#linear-gradient-32);}.cls-43{fill:url(#linear-gradient-33);}.cls-44{fill:url(#linear-gradient-34);}.cls-45{fill:url(#linear-gradient-35);}.cls-46{fill:url(#linear-gradient-36);}.cls-47{fill:url(#linear-gradient-37);}.cls-48{fill:url(#linear-gradient-38);}.cls-49{fill:url(#linear-gradient-39);}.cls-50{fill:url(#linear-gradient-40);}.cls-51{fill:url(#linear-gradient-41);}</style><linearGradient id="linear-gradient" x1="3423.39" y1="3591.77" x2="1371.97" y2="1377.53" gradientUnits="userSpaceOnUse"><stop offset="0" stop-color="#b37cff"/><stop offset="1" stop-color="#f895e7"/></linearGradient><linearGradient id="linear-gradient-2" x1="3329.11" y1="392.26" x2="4008.37" y2="392.26" gradientTransform="translate(1720.84 -911.53) rotate(68.44)" gradientUnits="userSpaceOnUse"><stop offset="0" stop-color="#a737d5"/><stop offset="1" stop-color="#ef497a"/></linearGradient><linearGradient id="linear-gradient-3" x1="1106.22" y1="1282.12" x2="1907.98" y2="1282.12" gradientTransform="translate(1720.84 -911.53) rotate(68.44)" xlink:href="#linear-gradient"/><linearGradient id="linear-gradient-4" x1="1901.8" y1="3172.45" x2="1872.16" y2="2585.49" gradientUnits="userSpaceOnUse"><stop offset="0" stop-color="#2b3582"/><stop offset="1" stop-color="#150e42"/></linearGradient><linearGradient id="linear-gradient-5" x1="455.82" y1="1847.99" x2="3194.67" y2="1847.99" xlink:href="#linear-gradient-4"/><linearGradient id="linear-gradient-6" x1="3380.88" y1="1010.13" x2="-2560.28" y2="3980.72" gradientUnits="userSpaceOnUse"><stop offset="0" stop-color="#fdf53f"/><stop offset="1" stop-color="#d93c65"/></linearGradient><linearGradient id="linear-gradient-7" x1="1903.65" y1="2950.97" x2="1630.92" y2="3549.79" xlink:href="#linear-gradient-4"/><linearGradient id="linear-gradient-8" x1="1900.81" y1="633.06" x2="554.75" y2="2923.29" gradientUnits="userSpaceOnUse"><stop offset="0" stop-color="#53d8ff"/><stop offset="1" stop-color="#3840f7"/></linearGradient><linearGradient id="linear-gradient-9" x1="2987.28" y1="566.56" x2="2100.21" y2="2693.45" xlink:href="#linear-gradient-8"/><linearGradient id="_33" x1="2658.55" y1="934.93" x2="2501.12" y2="2745.43" gradientUnits="userSpaceOnUse"><stop offset="0" stop-color="#53d8ff"/><stop offset="0.42" stop-color="#4898fc"/><stop offset="0.8" stop-color="#3e5ef9"/><stop offset="1" stop-color="#3840f7"/></linearGradient><linearGradient id="linear-gradient-10" x1="2754.18" y1="340.25" x2="2464.79" y2="1765.53" xlink:href="#linear-gradient-8"/><linearGradient id="linear-gradient-11" x1="2545.29" y1="740.26" x2="2452.26" y2="1556.06" xlink:href="#linear-gradient-8"/><linearGradient id="linear-gradient-12" x1="1894.96" y1="481.95" x2="1726.17" y2="1705.7" gradientTransform="translate(66.44 -38.01) rotate(9.82)" gradientUnits="userSpaceOnUse"><stop offset="0" stop-color="#cb236d"/><stop offset="1" stop-color="#4c246d"/></linearGradient><linearGradient id="linear-gradient-13" x1="2105.98" y1="511.06" x2="1937.19" y2="1734.81" xlink:href="#linear-gradient-12"/><linearGradient id="linear-gradient-14" x1="12527.21" y1="3138.24" x2="12598.99" y2="2686.69" gradientTransform="matrix(-1, 0, 0, 1, 13675.63, 0)" xlink:href="#linear-gradient-12"/><linearGradient id="linear-gradient-15" x1="12555.13" y1="3141.27" x2="12629.3" y2="2674.69" gradientTransform="matrix(-1, 0, 0, 1, 13675.63, 0)" xlink:href="#linear-gradient-12"/><linearGradient id="linear-gradient-16" x1="12497.23" y1="3155.24" x2="12573.52" y2="2675.35" gradientTransform="matrix(-1, 0, 0, 1, 13675.63, 0)" xlink:href="#linear-gradient-6"/><linearGradient id="linear-gradient-17" x1="1388.32" y1="3022.21" x2="1329.69" y2="3137.51" xlink:href="#linear-gradient-4"/><linearGradient id="linear-gradient-18" x1="1276.83" y1="3068.09" x2="1335.24" y2="3068.09" gradientUnits="userSpaceOnUse"><stop offset="0" stop-color="#f9b776"/><stop offset="1" stop-color="#f47960"/></linearGradient><linearGradient id="linear-gradient-19" x1="1196" y1="2913.55" x2="1444.21" y2="2565.68" gradientUnits="userSpaceOnUse"><stop offset="0" stop-color="#2b3582"/><stop offset="0.23" stop-color="#252a70"/><stop offset="0.73" stop-color="#19164f"/><stop offset="1" stop-color="#150e42"/></linearGradient><linearGradient id="linear-gradient-20" x1="1354.29" y1="3138.79" x2="1151.04" y2="3404.58" xlink:href="#linear-gradient-4"/><linearGradient id="linear-gradient-21" x1="1252.58" y1="3196.36" x2="1409.63" y2="3196.36" xlink:href="#linear-gradient-8"/><linearGradient id="linear-gradient-22" x1="1234.59" y1="3121.99" x2="1289.41" y2="3121.99" xlink:href="#linear-gradient-18"/><linearGradient id="linear-gradient-23" x1="1106.54" y1="3086.9" x2="1120.22" y2="2621.77" xlink:href="#linear-gradient-4"/><linearGradient id="linear-gradient-24" x1="1445.64" y1="2634.54" x2="1310.79" y2="2423.47" gradientTransform="matrix(1, 0, 0, 1, 0, 0)" xlink:href="#linear-gradient-12"/><linearGradient id="linear-gradient-25" x1="1551.82" y1="2160.16" x2="1497.67" y2="2513.28" xlink:href="#linear-gradient-18"/><linearGradient id="linear-gradient-26" x1="1242.76" y1="2294.55" x2="665.7" y2="2794" gradientTransform="matrix(1, 0, 0, 1, 0, 0)" xlink:href="#linear-gradient-12"/><linearGradient id="linear-gradient-27" x1="1219.64" y1="2207.68" x2="1346.51" y2="2207.68" xlink:href="#linear-gradient-18"/><linearGradient id="linear-gradient-28" x1="1168.56" y1="2208.82" x2="591.49" y2="2708.26" gradientTransform="matrix(1, 0, 0, 1, 0, 0)" xlink:href="#linear-gradient-12"/><linearGradient id="linear-gradient-29" x1="1592.98" y1="2085.04" x2="1301.06" y2="2233.36" gradientTransform="matrix(1, 0, 0, 1, 0, 0)" xlink:href="#linear-gradient-12"/><linearGradient id="linear-gradient-30" x1="1133.12" y1="2492.18" x2="647.4" y2="3336.23" xlink:href="#linear-gradient-18"/><linearGradient id="linear-gradient-31" x1="11773.92" y1="2094.79" x2="11766.86" y2="2301.94" gradientTransform="translate(-8374.81 -4673.83) rotate(29.93)" xlink:href="#linear-gradient-18"/><linearGradient id="linear-gradient-32" x1="11744.18" y1="947.31" x2="11885.51" y2="1129.27" gradientTransform="translate(-8374.81 -4673.83) rotate(29.93)" xlink:href="#linear-gradient-4"/><linearGradient id="linear-gradient-33" x1="11722.8" y1="2093.06" x2="11715.74" y2="2300.21" gradientTransform="translate(-8374.81 -4673.83) rotate(29.93)" xlink:href="#linear-gradient-18"/><linearGradient id="linear-gradient-34" x1="12379.21" y1="3152.46" x2="12130.5" y2="3220.63" gradientTransform="matrix(-1, -0.05, -0.05, 1, 13717.1, -55.03)" xlink:href="#linear-gradient-4"/><linearGradient id="linear-gradient-35" x1="12142" y1="2321.45" x2="11965.53" y2="2507.96" gradientTransform="matrix(-1, 0, 0, 1, 13675.63, 0)" xlink:href="#linear-gradient-4"/><linearGradient id="linear-gradient-36" x1="12035.31" y1="2367.89" x2="11955.24" y2="2488.47" gradientTransform="matrix(-0.31, -0.95, -0.95, 0.31, 7654.39, 13102.05)" xlink:href="#linear-gradient-8"/><linearGradient id="linear-gradient-37" x1="11868.06" y1="2907.51" x2="12166.06" y2="2907.51" gradientTransform="matrix(-1, 0, 0, 1, 13675.63, 0)" gradientUnits="userSpaceOnUse"><stop offset="0" stop-color="#9cfffb"/><stop offset="1" stop-color="#9bfffa"/></linearGradient><linearGradient id="linear-gradient-38" x1="11902.47" y1="2907.51" x2="12200.47" y2="2907.51" xlink:href="#linear-gradient-37"/><linearGradient id="linear-gradient-39" x1="12710.17" y1="2907.51" x2="13008.17" y2="2907.51" xlink:href="#linear-gradient-37"/><linearGradient id="linear-gradient-40" x1="12744.58" y1="2907.51" x2="13042.59" y2="2907.51" xlink:href="#linear-gradient-37"/><linearGradient id="linear-gradient-41" x1="11797.79" y1="2594.74" x2="13061.75" y2="2594.74" xlink:href="#linear-gradient-37"/></defs><g id="Background"><rect class="cls-1" width="3710" height="3710"/></g><g id="Illustration"><path class="cls-2" d="M3137.51,2330c-281.88,658.86-1026,941.86-1609,893.61-159.18-13.17-479.45-39.68-729.53-276.17C318.78,2493.24,392.74,1543.93,852.48,985c59.21-72,469-554.2,1107.62-547.75C2427.65,442,2755.82,706.11,2795.73,739c50.41,41.56,161.59,140.34,261.79,297C3293,1404.24,3313.66,1918.24,3137.51,2330Z"/><path class="cls-3" d="M2350.67,2385.74a4.18,4.18,0,0,1-3.33-6.7c3.38-4.47,6.89-8.93,10.43-13.26a4.17,4.17,0,1,1,6.46,5.29c-3.47,4.24-6.91,8.62-10.22,13A4.2,4.2,0,0,1,2350.67,2385.74Z"/><path class="cls-3" d="M3131.6,2564.59a4.18,4.18,0,0,1-4.09-3.37c-2.21-11.08-4.89-22.21-8-33.07a4.18,4.18,0,1,1,8-2.28c3.13,11.08,5.86,22.43,8.11,33.72a4.17,4.17,0,0,1-3.28,4.91A3.88,3.88,0,0,1,3131.6,2564.59Zm-26.61-86a4.19,4.19,0,0,1-3.85-2.53c-4.42-10.36-9.33-20.71-14.58-30.75a4.18,4.18,0,0,1,7.41-3.87c5.35,10.23,10.35,20.78,14.86,31.34a4.18,4.18,0,0,1-2.21,5.48A4.1,4.1,0,0,1,3105,2478.58Zm-43.63-78.76a4.16,4.16,0,0,1-3.43-1.79c-6.46-9.3-13.35-18.44-20.48-27.17a4.18,4.18,0,0,1,6.47-5.29c7.27,8.9,14.29,18.22,20.87,27.69a4.16,4.16,0,0,1-1.05,5.81A4.09,4.09,0,0,1,3061.36,2399.82ZM2399,2331.77a4.18,4.18,0,0,1-2.88-7.21c8.36-7.9,17.15-15.58,26.12-22.82a4.18,4.18,0,0,1,5.24,6.51c-8.8,7.1-17.42,14.63-25.61,22.38A4.18,4.18,0,0,1,2399,2331.77Zm603.72-.25a4.21,4.21,0,0,1-2.88-1.14c-8.18-7.76-16.79-15.3-25.57-22.39a4.18,4.18,0,1,1,5.25-6.5c8.95,7.23,17.72,14.91,26.07,22.82a4.18,4.18,0,0,1-2.87,7.21Zm-532.3-54.58a4.18,4.18,0,0,1-2.2-7.73c9.82-6.07,20-11.81,30.18-17.07a4.18,4.18,0,1,1,3.83,7.42c-10,5.17-20,10.8-29.62,16.75A4.08,4.08,0,0,1,2470.43,2276.94Zm460.93-.22a4.16,4.16,0,0,1-2.19-.62c-9.58-5.9-19.55-11.51-29.64-16.68a4.17,4.17,0,1,1,3.81-7.43c10.28,5.26,20.44,11,30.21,17a4.18,4.18,0,0,1-2.19,7.74Zm-379.91-39a4.18,4.18,0,0,1-1.42-8.11c10.82-3.92,21.94-7.47,33-10.54a4.18,4.18,0,0,1,2.23,8.06c-10.88,3-21.79,6.48-32.41,10.34A4.23,4.23,0,0,1,2551.45,2237.67Zm298.82,0a4.15,4.15,0,0,1-1.42-.24c-10.62-3.83-21.53-7.3-32.42-10.3a4.17,4.17,0,0,1,2.21-8c11.11,3,22.22,6.58,33,10.49a4.17,4.17,0,0,1-1.41,8.1Zm-87.34-21.75a4,4,0,0,1-.6,0c-11.17-1.61-22.55-2.78-33.84-3.51a4.18,4.18,0,0,1-3.91-4.44,4.25,4.25,0,0,1,4.44-3.9c11.51.74,23.11,1.94,34.49,3.57a4.18,4.18,0,0,1-.58,8.32Zm-124.14-.07a4.18,4.18,0,0,1-.58-8.32c11.4-1.62,23-2.81,34.49-3.53a4.18,4.18,0,0,1,.53,8.34c-11.27.71-22.66,1.87-33.85,3.47A3.9,3.9,0,0,1,2638.79,2215.84Z"/><path class="cls-3" d="M3139.83,2636.75a4.18,4.18,0,0,1-4.18-4.05c-.16-5.48-.44-11-.81-16.52a4.18,4.18,0,0,1,3.88-4.46,4.25,4.25,0,0,1,4.45,3.89c.39,5.58.67,11.25.84,16.84a4.18,4.18,0,0,1-4.05,4.3Z"/><path class="cls-3" d="M3016.24,2956.16a4.17,4.17,0,0,1-3-7.08c3.85-4,7.65-8,11.3-12.1a4.18,4.18,0,1,1,6.21,5.59c-3.72,4.14-7.59,8.28-11.52,12.32A4.15,4.15,0,0,1,3016.24,2956.16Z"/><path class="cls-3" d="M2701.39,3089.58l-3.78,0a4.18,4.18,0,0,1,0-8.35h3.74c9.87,0,19.88-.34,29.76-1a4.24,4.24,0,0,1,4.45,3.89,4.17,4.17,0,0,1-3.88,4.45C2721.65,3089.23,2711.45,3089.58,2701.39,3089.58Zm-58.49-3.91-.56,0c-11.22-1.51-22.52-3.47-33.61-5.83a4.18,4.18,0,1,1,1.74-8.17c10.88,2.31,22,4.24,33,5.71a4.18,4.18,0,0,1-.55,8.32Zm142.95-4.31a4.18,4.18,0,0,1-.8-8.28c10.92-2.14,21.88-4.75,32.57-7.73a4.18,4.18,0,0,1,2.25,8.05c-10.9,3-22.07,5.69-33.21,7.88A3.71,3.71,0,0,1,2785.85,3081.36Zm-229.13-16.19a4.12,4.12,0,0,1-1.37-.24c-10.72-3.72-21.41-7.9-31.77-12.41a4.18,4.18,0,0,1,3.34-7.67c10.16,4.43,20.65,8.54,31.17,12.19a4.18,4.18,0,0,1-1.37,8.13Zm313.88-9.66a4.18,4.18,0,0,1-1.62-8c10.2-4.29,20.41-9,30.34-14.15a4.18,4.18,0,1,1,3.82,7.44c-10.12,5.19-20.52,10.05-30.93,14.41A4,4,0,0,1,2870.6,3055.51Zm-394.21-27.67a4.16,4.16,0,0,1-2.13-.59c-9.72-5.78-19.35-12-28.62-18.54a4.18,4.18,0,0,1,4.81-6.83c9.09,6.4,18.54,12.52,28.08,18.19a4.18,4.18,0,0,1-2.14,7.77Zm472-14.69a4.18,4.18,0,0,1-2.36-7.63c9.19-6.26,18.25-13,26.93-19.89a4.18,4.18,0,0,1,5.22,6.53c-8.84,7.06-18.08,13.89-27.44,20.27A4.16,4.16,0,0,1,2948.42,3013.15Zm-543.18-38a4.16,4.16,0,0,1-2.81-1.09c-8.35-7.61-16.52-15.67-24.29-23.95a4.18,4.18,0,0,1,6.09-5.72c7.63,8.12,15.65,16,23.83,23.5a4.18,4.18,0,0,1-2.82,7.26Zm-59-66a4.15,4.15,0,0,1-3.38-1.73c-5.24-7.2-10.35-14.67-15.17-22.22q-2-3-3.85-6.11a4.18,4.18,0,0,1,7.12-4.39q1.85,3,3.77,6c4.73,7.4,9.74,14.74,14.88,21.81a4.18,4.18,0,0,1-3.37,6.64Zm-44.73-76.48a4.18,4.18,0,0,1-3.8-2.44c-4.71-10.3-9.08-20.92-13-31.56a4.18,4.18,0,0,1,7.85-2.88c3.83,10.44,8.11,20.86,12.74,31a4.18,4.18,0,0,1-3.8,5.92ZM2273,2748.73a4.18,4.18,0,0,1-4.07-3.24c-2.53-11-4.66-22.32-6.33-33.53a4.18,4.18,0,1,1,8.26-1.24c1.64,11,3.73,22.08,6.22,32.9a4.17,4.17,0,0,1-3.14,5A3.83,3.83,0,0,1,2273,2748.73Z"/><path class="cls-3" d="M2262,2660.65a4.18,4.18,0,0,1-4.17-4.08c-.13-5.57-.15-11.24-.06-16.87a4.24,4.24,0,0,1,4.24-4.11,4.19,4.19,0,0,1,4.12,4.24c-.09,5.53-.07,11.09.05,16.55a4.18,4.18,0,0,1-4.08,4.27Z"/><path class="cls-4" d="M2367.1,2598.83a5.25,5.25,0,0,0,2.21,5.7l53.64,35.16a279.1,279.1,0,0,0,13,89.57l-41.37,48.95a5.26,5.26,0,0,0-.5,6.09l39.36,66.09a5.29,5.29,0,0,0,5.6,2.47l62.75-13.06a279,279,0,0,0,72.56,54.09l5.37,63.91a5.26,5.26,0,0,0,4,4.66l74.56,18.9a5.27,5.27,0,0,0,5.7-2.22l35.16-53.63a279.38,279.38,0,0,0,89.57-13l48.95,41.36a5.28,5.28,0,0,0,6.1.5l66.09-39.36a5.27,5.27,0,0,0,2.46-5.6l-13.06-62.74a279.48,279.48,0,0,0,54.1-72.57l63.9-5.37a5.26,5.26,0,0,0,4.67-3.95l18.89-74.57a5.25,5.25,0,0,0-2.22-5.7l-53.63-35.16a279,279,0,0,0-13-89.56l41.37-49a5.26,5.26,0,0,0,.5-6.09l-39.37-66.09a5.25,5.25,0,0,0-5.59-2.46l-62.75,13a279.22,279.22,0,0,0-72.56-54.09l-5.37-63.9a5.28,5.28,0,0,0-4-4.67l-74.56-18.9a5.27,5.27,0,0,0-5.7,2.22l-35.16,53.63a279.62,279.62,0,0,0-89.57,13l-48.95-41.36a5.28,5.28,0,0,0-6.1-.5L2498.06,2374a5.27,5.27,0,0,0-2.46,5.6l13.05,62.74a279.66,279.66,0,0,0-54.09,72.57l-63.9,5.37a5.28,5.28,0,0,0-4.67,4Z"/><path class="cls-1" d="M2703.94,2719.09h-.08a74.65,74.65,0,1,1,.08,0Zm0-136.6a62,62,0,0,0,0,124.07h.06a62,62,0,0,0,0-124.07Z"/><path class="cls-1" d="M2705.87,2836.63a192.11,192.11,0,0,1-182.26-130.76l11.88-4a180.45,180.45,0,0,0,16,34.69c39.76,66.75,116.37,98.33,188.56,84.24l.41-.08.41-.08A179.23,179.23,0,0,0,2859.63,2553c-50.61-85-160.89-112.92-245.86-62.31a179.16,179.16,0,0,0-66.11,68.95l-11-5.94a191.65,191.65,0,0,1,70.73-73.79c90.9-54.13,208.9-24.23,263,66.67a190.61,190.61,0,0,1,27.1,97.82,192.75,192.75,0,0,1-6,47.51,191.78,191.78,0,0,1-185.67,144.7Z"/><path class="cls-3" d="M665.21,655.67a4.86,4.86,0,0,1-3-1,4.93,4.93,0,0,1-1-6.91c4-5.27,8.13-10.53,12.31-15.64a4.93,4.93,0,1,1,7.63,6.24c-4.09,5-8.15,10.18-12.07,15.36A4.91,4.91,0,0,1,665.21,655.67Z"/><path class="cls-3" d="M1587,866.78a4.94,4.94,0,0,1-4.83-4c-2.61-13.08-5.77-26.22-9.39-39a4.93,4.93,0,1,1,9.49-2.69c3.7,13.08,6.92,26.47,9.58,39.8a4.94,4.94,0,0,1-3.88,5.8A4.63,4.63,0,0,1,1587,866.78Zm-31.41-101.52a4.93,4.93,0,0,1-4.54-3c-5.22-12.23-11-24.44-17.21-36.29a4.93,4.93,0,0,1,8.74-4.57c6.32,12.08,12.22,24.52,17.54,37a4.92,4.92,0,0,1-4.53,6.86Zm-51.49-93a4.94,4.94,0,0,1-4.06-2.12c-7.62-11-15.75-21.77-24.16-32.07a4.93,4.93,0,1,1,7.63-6.24c8.58,10.5,16.87,21.5,24.63,32.68a4.93,4.93,0,0,1-4,7.75ZM722.26,592a4.93,4.93,0,0,1-3.39-8.51c9.86-9.32,20.23-18.38,30.82-26.93a4.93,4.93,0,1,1,6.19,7.68c-10.38,8.38-20.56,17.27-30.23,26.41A5,5,0,0,1,722.26,592Zm712.6-.29a4.87,4.87,0,0,1-3.39-1.35c-9.67-9.16-19.83-18.05-30.19-26.42a4.93,4.93,0,0,1,6.19-7.68c10.57,8.54,20.93,17.6,30.78,26.94a4.93,4.93,0,0,1-3.39,8.51Zm-628.3-64.43a4.93,4.93,0,0,1-2.59-9.12c11.59-7.17,23.58-13.94,35.62-20.15a4.93,4.93,0,1,1,4.52,8.76c-11.82,6.1-23.58,12.75-35,19.78A4.89,4.89,0,0,1,806.56,527.25Zm544.05-.26a4.88,4.88,0,0,1-2.58-.73c-11.31-7-23.08-13.59-35-19.68a4.93,4.93,0,1,1,4.5-8.78c12.13,6.21,24.13,13,35.66,20.06a4.93,4.93,0,0,1-2.6,9.13ZM902.2,480.91a4.93,4.93,0,0,1-1.69-9.57c12.79-4.64,25.9-8.83,39-12.45a4.93,4.93,0,1,1,2.62,9.51c-12.84,3.55-25.71,7.66-38.25,12.21A5,5,0,0,1,902.2,480.91Zm352.7,0a4.91,4.91,0,0,1-1.67-.3c-12.54-4.52-25.41-8.6-38.27-12.14a4.93,4.93,0,1,1,2.61-9.51c13.11,3.6,26.23,7.77,39,12.38a4.93,4.93,0,0,1-1.68,9.57Zm-103.09-25.68a5.78,5.78,0,0,1-.71-.05c-13.17-1.89-26.61-3.28-39.94-4.14a4.94,4.94,0,0,1-4.61-5.24,5,5,0,0,1,5.24-4.6c13.58.87,27.28,2.29,40.71,4.21a4.94,4.94,0,0,1-.69,9.82Zm-146.53-.09a4.93,4.93,0,0,1-.68-9.81c13.45-1.92,27.15-3.32,40.71-4.18a5,5,0,0,1,5.24,4.62,5,5,0,0,1-4.62,5.23c-13.3.84-26.74,2.21-39.94,4.1A5.63,5.63,0,0,1,1005.28,455.13Z"/><path class="cls-3" d="M1596.68,952a4.93,4.93,0,0,1-4.92-4.79c-.2-6.47-.53-13-1-19.5a4.94,4.94,0,0,1,4.58-5.26,5,5,0,0,1,5.26,4.59c.45,6.59.79,13.28,1,19.87a4.94,4.94,0,0,1-4.78,5.09Z"/><path class="cls-3" d="M1450.81,1329a4.92,4.92,0,0,1-3.53-8.36c4.54-4.68,9-9.49,13.33-14.28a4.94,4.94,0,0,1,7.34,6.6c-4.39,4.88-9,9.77-13.6,14.55A4.94,4.94,0,0,1,1450.81,1329Z"/><path class="cls-3" d="M1079.18,1486.45l-4.47,0a4.93,4.93,0,0,1,0-9.86h0l4.37,0c11.65,0,23.46-.41,35.12-1.21a5,5,0,0,1,5.26,4.59,5,5,0,0,1-4.58,5.26C1103.09,1486,1091.05,1486.45,1079.18,1486.45Zm-69-4.61c-.22,0-.44,0-.66,0-13.24-1.78-26.59-4.09-39.68-6.88a4.93,4.93,0,0,1,2.06-9.65c12.84,2.74,25.94,5,38.93,6.75a4.93,4.93,0,0,1-.65,9.82Zm168.73-5.09a4.93,4.93,0,0,1-.94-9.77c12.88-2.54,25.82-5.61,38.44-9.12a4.93,4.93,0,0,1,2.65,9.49c-12.87,3.59-26,6.72-39.19,9.31A5.2,5.2,0,0,1,1178.87,1476.75Zm-270.45-19.12a4.79,4.79,0,0,1-1.62-.27c-12.66-4.39-25.27-9.33-37.5-14.66a4.93,4.93,0,1,1,3.94-9c12,5.23,24.38,10.07,36.79,14.38a4.93,4.93,0,0,1-1.61,9.59Zm370.48-11.4a4.93,4.93,0,0,1-1.91-9.48c12-5,24.09-10.67,35.81-16.69a4.93,4.93,0,1,1,4.51,8.77c-11.94,6.14-24.23,11.86-36.5,17A5,5,0,0,1,1278.9,1446.23Zm-465.3-32.66a4.88,4.88,0,0,1-2.51-.69c-11.48-6.82-22.85-14.18-33.79-21.88a4.93,4.93,0,0,1,5.68-8.07c10.73,7.56,21.89,14.78,33.15,21.47a4.93,4.93,0,0,1-2.53,9.17Zm557.16-17.33a4.93,4.93,0,0,1-2.78-9c10.84-7.39,21.53-15.29,31.78-23.48a4.93,4.93,0,0,1,6.16,7.71c-10.44,8.34-21.34,16.39-32.39,23.92A4.89,4.89,0,0,1,1370.76,1396.24Zm-641.14-44.9a4.89,4.89,0,0,1-3.32-1.29c-9.85-9-19.5-18.5-28.67-28.27a4.93,4.93,0,0,1,7.19-6.75c9,9.59,18.47,18.92,28.13,27.74a4.93,4.93,0,0,1-3.33,8.57Zm-69.69-77.92a5,5,0,0,1-4-2c-6.18-8.51-12.21-17.33-17.9-26.23-1.53-2.4-3-4.81-4.53-7.22a4.93,4.93,0,0,1,8.39-5.18q2.19,3.56,4.45,7.08c5.59,8.74,11.5,17.4,17.57,25.75a4.93,4.93,0,0,1-1.09,6.88A4.88,4.88,0,0,1,659.93,1273.42Zm-52.8-90.27a4.94,4.94,0,0,1-4.49-2.88c-5.56-12.16-10.71-24.69-15.32-37.25a4.93,4.93,0,1,1,9.26-3.4c4.52,12.32,9.58,24.61,15,36.54a4.94,4.94,0,0,1-4.49,7Zm-33.63-99a4.94,4.94,0,0,1-4.8-3.83c-3-13-5.5-26.34-7.48-39.58a4.93,4.93,0,0,1,9.76-1.45c1.94,13,4.41,26,7.34,38.83a4.93,4.93,0,0,1-3.71,5.91A5.24,5.24,0,0,1,573.5,1084.13Z"/><path class="cls-3" d="M560.58,980.17a4.94,4.94,0,0,1-4.93-4.82c-.14-6.57-.17-13.27-.06-19.91a5,5,0,0,1,5-4.85,4.93,4.93,0,0,1,4.85,5c-.1,6.51-.08,13.08.06,19.53a4.93,4.93,0,0,1-4.82,5Z"/><path class="cls-5" d="M684.59,907.19a6.21,6.21,0,0,0,2.62,6.73l63.31,41.5a329.34,329.34,0,0,0,15.34,105.72L717,1118.92a6.23,6.23,0,0,0-.59,7.2l46.46,78a6.22,6.22,0,0,0,6.61,2.9l74.06-15.4a329.65,329.65,0,0,0,85.65,63.84l6.33,75.43a6.24,6.24,0,0,0,4.67,5.51l88,22.3a6.19,6.19,0,0,0,6.72-2.62l41.5-63.3a329.89,329.89,0,0,0,105.72-15.34l57.79,48.82a6.21,6.21,0,0,0,7.19.59l78-46.46a6.22,6.22,0,0,0,2.91-6.61l-15.41-74.06a329.82,329.82,0,0,0,63.84-85.65l75.43-6.34a6.21,6.21,0,0,0,5.51-4.67l22.31-88a6.24,6.24,0,0,0-2.62-6.73l-63.31-41.5a330,330,0,0,0-15.34-105.72l48.82-57.78a6.23,6.23,0,0,0,.59-7.2l-46.46-78a6.22,6.22,0,0,0-6.61-2.91l-74.06,15.41a329.63,329.63,0,0,0-85.65-63.85l-6.34-75.42a6.21,6.21,0,0,0-4.67-5.51l-88-22.31a6.23,6.23,0,0,0-6.73,2.62l-41.5,63.3a329.71,329.71,0,0,0-105.72,15.35L924.38,596a6.21,6.21,0,0,0-7.19-.6l-78,46.47a6.21,6.21,0,0,0-2.91,6.61l15.41,74a330,330,0,0,0-63.85,85.65l-75.42,6.34a6.23,6.23,0,0,0-5.51,4.67Z"/><path class="cls-1" d="M1082.18,1049.15h-.08a88.09,88.09,0,1,1,.08,0Zm0-161.25a73.23,73.23,0,0,0-.07,146.45h.07a73.23,73.23,0,0,0,.07-146.45Z"/><path class="cls-1" d="M1084.46,1187.88c-77.26,0-152.63-39.48-195-110.54a227.63,227.63,0,0,1-20.16-43.8l14-4.72a213.24,213.24,0,0,0,18.85,41c46.93,78.78,137.35,116.06,222.57,99.43l.47-.1.49-.09a211.8,211.8,0,0,0,163.54-155.56,213.32,213.32,0,0,0,6.58-52.42A210.39,210.39,0,0,0,1266,853.12C1206.22,752.84,1076,719.84,975.76,779.57a211.37,211.37,0,0,0-78,81.4l-13-7a226.15,226.15,0,0,1,83.49-87.1c107.29-63.89,246.57-28.6,310.48,78.69a225.18,225.18,0,0,1,32,115.45,228.06,228.06,0,0,1-7,56.08,226.33,226.33,0,0,1-219.16,170.8Z"/><polygon class="cls-6" points="1654.07 2506.09 1604.83 2947.67 2176.07 2947.67 2101.66 2506.09 1654.07 2506.09"/><path class="cls-7" d="M455.82,1199.3V2414.05a184.28,184.28,0,0,0,179.53,184.23c443.69,11.44,1995.49,39.18,2417.85,32.95a135.59,135.59,0,0,0,133.49-131.73c8.15-282.2,21.37-960.8-27.58-1275.85a139.54,139.54,0,0,0-133.41-118.11c-371.76-11.89-2016.77-49.65-2438.93-40.17A133.94,133.94,0,0,0,455.82,1199.3Z"/><path class="cls-8" d="M532,1193.39v1154.1a106.77,106.77,0,0,0,105.18,106.75l2355.21,29.1a103.92,103.92,0,0,0,105.47-103.51L3101.84,1236a76,76,0,0,0-74.15-76.25l-2411.3-48.72A82.35,82.35,0,0,0,532,1193.39Z"/><path class="cls-9" d="M3115.63,2530.75h-.06L532,2486.73a3.38,3.38,0,0,1,.11-6.75l2583.58,44a3.38,3.38,0,0,1,0,6.75Z"/><path class="cls-9" d="M1849.32,2584.51a30.26,30.26,0,1,1,30.26-30.25A30.28,30.28,0,0,1,1849.32,2584.51Zm0-53.76a23.51,23.51,0,1,0,23.51,23.51A23.53,23.53,0,0,0,1849.32,2530.75Z"/><path class="cls-10" d="M2299.11,3038h-836c-22.71,0-39.77-16.17-35.38-33.54l10.73-42.43c3.23-12.76,17.26-22.12,33.94-22.64l806-25.15c17.42-.55,32.84,8.7,36.63,22l19.34,67.58C2339.33,3021.35,2322.19,3038,2299.11,3038Z"/><path class="cls-1" d="M1913.12,2951.55a3.38,3.38,0,0,1,0-6.75l34.54-.5a3.43,3.43,0,0,1,3.42,3.32,3.37,3.37,0,0,1-3.33,3.42l-34.53.51Z"/><path class="cls-1" d="M1458.65,3015.28a3.29,3.29,0,0,1-.54-.05,3.37,3.37,0,0,1-2.8-3.86l4.93-30.86a35.07,35.07,0,0,1,34.18-29.59l366.31-5.35a3.47,3.47,0,0,1,3.43,3.32,3.4,3.4,0,0,1-3.33,3.43l-366.31,5.35a28.34,28.34,0,0,0-27.62,23.91l-4.92,30.85A3.39,3.39,0,0,1,1458.65,3015.28Z"/><path class="cls-11" d="M2927.89,1213,677.12,1185.32c-35.47-.43-64.31,28.59-64.82,64.87L597.84,2298.38c-.5,35.82,27.16,65.47,62.16,66.71l2263.54,80.09c31.48,1.12,61-10.9,83.65-33.3s34.39-53.25,34.39-85.49v-994.5C3041.58,1266.8,2991.5,1213.82,2927.89,1213Z"/><path class="cls-12" d="M659.71,1156H1810.34c31.37,0,56.65,31.75,56.08,70.44l-16.19,1101.12c-.76,51.83-35.32,93.16-77.33,92.51L658.47,2402.85c-30.71-.48-55.4-31.33-55.38-69.22l.53-1108.46C603.64,1187,628.75,1156,659.71,1156Z"/><path class="cls-13" d="M677.91,1188.5H1782.78c30.13,0,54.4,30.43,53.85,67.51l-15.54,1055.34c-.73,49.67-33.91,89.29-74.26,88.66L676.72,2383.48c-29.49-.46-53.2-30-53.18-66.34l.51-1062.37C624.07,1218.16,648.18,1188.5,677.91,1188.5Z"/><path class="cls-1" d="M1438.59,1315.69h-.34l-729.66-8.13c-19.87-.22-36-15.94-36.05-35v-28.61a27.29,27.29,0,0,1,8.6-19.88,29.54,29.54,0,0,1,20.49-8.12h741.9a28.08,28.08,0,0,1,20.59,8.89,25.7,25.7,0,0,1,6.91,19.62l-3.5,45.41C1466.4,1304.39,1453.72,1315.69,1438.59,1315.69Zm-737-89.65a19.42,19.42,0,0,0-13.5,5.31,17.26,17.26,0,0,0-5.47,12.56v28.61c0,13.57,11.68,24.74,26,24.9l729.66,8.14h.23c9.87,0,18.12-7.21,18.84-16.51l3.51-45.4a15.75,15.75,0,0,0-4.25-12,17.94,17.94,0,0,0-13.16-5.63Z"/><path class="cls-14" d="M1429.68,1300.34l-707.82-6c-16.69-.14-30.12-9.92-30.12-22v-21c0-9.28,10.43-16.8,23.31-16.8h719.71c12.69,0,22.71,7.77,21.77,16.89l-3.4,33.26C1452.23,1293.65,1442,1300.45,1429.68,1300.34Z"/><path class="cls-15" d="M1672,1423.16H677.87c-6.59,0-11.94-5.89-11.94-13.16v-35.22c0-7.31,5.41-13.22,12.05-13.16l994.17,9.69c6.55.06,11.84,5.94,11.84,13.16V1410C1684,1417.27,1678.64,1423.16,1672,1423.16Z"/><path class="cls-16" d="M1750.73,1663l-1047-14a34,34,0,0,1-33.58-34V1471.22A34.41,34.41,0,0,1,705,1436.81L1748.88,1448a37.57,37.57,0,0,1,37.17,37.56v142.57A34.85,34.85,0,0,1,1750.73,1663Z"/><path class="cls-15" d="M1581.68,1770H676.39c-6,0-10.88-5.89-10.88-13.16v-35.22c0-7.31,4.93-13.23,11-13.16l905.3,9.69c6,.06,10.78,5.94,10.78,13.16v25.53C1592.56,1764.1,1587.69,1770,1581.68,1770Z"/><path class="cls-16" d="M1750.31,2031.27,703.34,2016c-18.61-.27-33.57-16.87-33.57-37.26V1821.31c0-21,15.63-37.89,34.77-37.67l1043.92,12.23c20.59.24,37.17,18.58,37.17,41.13v156.11C1785.63,2014.39,1769.74,2031.56,1750.31,2031.27Z"/><path class="cls-15" d="M1777.13,2144.21H680.81a13.17,13.17,0,0,1-13.17-13.16v-35.22a13.17,13.17,0,0,1,13.29-13.16l1096.31,9.69a13.17,13.17,0,0,1,13.06,13.16v25.53A13.17,13.17,0,0,1,1777.13,2144.21Z"/><path class="cls-16" d="M1752.44,2373.05l-1047-13.29c-18.62-.24-33.58-14.66-33.58-32.38V2190.6c0-18.22,15.63-32.93,34.78-32.74l1043.92,10.63c20.59.21,37.16,16.15,37.16,35.74v135.66C1787.75,2358.38,1771.86,2373.3,1752.44,2373.05Z"/><path class="cls-17" d="M2053.34,858.2H3181c30.75,0,55.52,31.38,55,69.63l-15.87,1088.55c-.74,51.23-34.6,92.09-103.91,91.45l-1049.8-16.39c-36.47-.57-67-29.15-68.46-65.6-.05-1.16-.07-2.32-.07-3.49l.52-1095.8C1998.39,888.8,2023,858.2,2053.34,858.2Z"/><path class="cls-18" d="M2078.21,887.68H3161c29.52,0,53.31,29.82,52.77,66.16l-15.23,1034.27c-.72,48.68-33.24,87.51-72.78,86.9L2077,2058.8c-28.9-.44-52.13-29.43-52.11-65l.5-1041.17C2025.45,916.75,2049.07,887.68,2078.21,887.68Z"/><path class="cls-19" d="M2101.27,998.32H3119.78a6.67,6.67,0,0,1,6.67,6.67v86.34a5.51,5.51,0,0,1-5.51,5.51h-1020a6.51,6.51,0,0,1-6.51-6.51v-85.17a6.83,6.83,0,0,1,6.83-6.83Z"/><path class="cls-20" d="M3042.9,1066.86H2664.66c-6.24,2.34-11.29-3.26-11.29-10.16v-18.53c0-6.91,5.05-12.51,11.29-12.51H3042.9c6.23,0,11.29,5.6,11.29,12.51v18.53C3054.19,1063.6,3049.13,1069.2,3042.9,1066.86Z"/><path class="cls-21" d="M2836.18,1586.45a47,47,0,0,1-46.94,47l-658.72,1.35c-17.21,0-31.17-14.27-31.17-31.88V1253c0-17.8,14.25-32.16,31.66-31.88l674.48,10.73c17,.27,30.69,14.46,30.69,31.88Z"/><path class="cls-20" d="M2751.85,2017.24,2470,2014.89a17.24,17.24,0,0,1-17.1-17.38l2.35-282.28a17.24,17.24,0,0,1,16.94-17.1l278.31,5.28a21.5,21.5,0,0,1,21.1,21.68l-2.37,275.05A17.24,17.24,0,0,1,2751.85,2017.24Z"/><path class="cls-20" d="M2393.38,2017.24l-281.84-2.35a17.23,17.23,0,0,1-17.1-17.38l2.34-282.28a17.25,17.25,0,0,1,16.95-17.1l278.31,5.28a21.5,21.5,0,0,1,21.1,21.68l-2.37,275.05A17.25,17.25,0,0,1,2393.38,2017.24Z"/><path class="cls-20" d="M3106.69,2023.91l-281.84-2.34a17.24,17.24,0,0,1-17.1-17.39l2.35-282.28a17.24,17.24,0,0,1,16.94-17.1l278.31,5.28a21.51,21.51,0,0,1,21.1,21.69l-2.37,275A17.24,17.24,0,0,1,3106.69,2023.91Z"/><path class="cls-20" d="M3102.76,1650.58H2899a23.77,23.77,0,0,1-23.69-23.85V1254.4c0-11.07,8.6-20.05,19.25-20.11l209.25-1.18a23.78,23.78,0,0,1,22.66,23.83v369.79A23.77,23.77,0,0,1,3102.76,1650.58Z"/><path class="cls-1" d="M2331.11,977.07a33.14,33.14,0,1,1,33.13-33.14A33.18,33.18,0,0,1,2331.11,977.07Zm0-59.53a26.39,26.39,0,1,0,26.38,26.39A26.42,26.42,0,0,0,2331.11,917.54Z"/><path class="cls-1" d="M2228.1,979.48a33.14,33.14,0,1,1,33.13-33.14A33.18,33.18,0,0,1,2228.1,979.48Zm0-59.53a26.39,26.39,0,1,0,26.38,26.39A26.42,26.42,0,0,0,2228.1,920Z"/><path class="cls-1" d="M2129.11,979.48a33.14,33.14,0,1,1,33.14-33.14A33.18,33.18,0,0,1,2129.11,979.48Zm0-59.53a26.39,26.39,0,1,0,26.39,26.39A26.42,26.42,0,0,0,2129.11,920Z"/><path class="cls-1" d="M2483.08,1497.27a79.4,79.4,0,1,1,79.37-79.44v.08A79.46,79.46,0,0,1,2483.08,1497.27Zm0-154.11a74.71,74.71,0,1,0,74.68,74.75v-.08A74.75,74.75,0,0,0,2483.08,1343.16Z"/><path class="cls-1" d="M2461.15,1457.75a4.11,4.11,0,0,1-4.11-4l-1.87-70.1a6.62,6.62,0,0,1,9.42-6.17l69.25,32.38a6.62,6.62,0,0,1,.31,11.84L2473,1454.29a4.11,4.11,0,0,1-3.87-7.26l58.3-31.08-64-29.93,1.81,67.51a4.11,4.11,0,0,1-4,4.22Z"/><path class="cls-22" d="M1582.37,902.89c107.29-163.79,327.26-223.47,463.39-198.63L2073.07,768c-138.84,22.25-236.46,47.32-309.3,167.89a18.56,18.56,0,0,1-19,8.73l-155.82-26.72A9.79,9.79,0,0,1,1582.37,902.89Z"/><path class="cls-23" d="M2012.92,612.54l187.24,83.11a17,17,0,0,1,1.25,30.4l-164.07,89.62a8.58,8.58,0,0,1-12-6.71l-25.06-189.49A7.73,7.73,0,0,1,2012.92,612.54Z"/><rect class="cls-24" x="1105.88" y="2795.56" width="33.21" height="359.18"/><path class="cls-25" d="M977,3161.67h290.9v-15.22a6.4,6.4,0,0,0-6.4-6.4H983.94a6.9,6.9,0,0,0-6.9,6.9Z"/><rect class="cls-26" x="922.03" y="2710.03" width="388.7" height="110.24" rx="37.96"/><path class="cls-27" d="M1307.48,3091.11s94.84,68.36,78.37,114.29c0,0-103.76-44.77-116.3-80s2.12-50.84,2.12-50.84Z"/><path class="cls-28" d="M1293.23,3033.82l-15.51,44.83a15.58,15.58,0,0,0,6,18.29,40.57,40.57,0,0,0,12.84,5,18.16,18.16,0,0,0,20.08-9.11l18.55-34.93Z"/><path class="cls-29" d="M1142.31,2630.29s194.8,33.76,278.37,111-76.7,323.42-76.7,323.42-26.26-.16-58.08-27.43c0,0,95-185.19,13.13-239.2-92.07-60.71-198.17-74.39-198.17-74.39l39.57-87.41Z"/><path class="cls-30" d="M1369.38,3180c-20.86-9.66-79.92-51-89.88-52.82s-27.22,9.88-27.22,9.88-4.2,7.55.3,20.73c13.86,16.77,44.63,48.74,86,60.66,30.43,8.76,51.72.59,65-9C1396.28,3198.37,1383.27,3186.43,1369.38,3180Z"/><path class="cls-31" d="M1338.59,3218.45c-41.38-11.92-72.15-43.89-86-60.66,3,8.9,10,20.37,25,33.81,37.1,33.34,108,45.36,123,43.05,12.09-1.86,11-13,3-25.17C1390.31,3219,1369,3227.21,1338.59,3218.45Z"/><path class="cls-32" d="M1234.59,3107.88c.24,5.75,12,25.46,18.85,36.52a17.91,17.91,0,0,0,15.16,8.48,45.88,45.88,0,0,0,12.53-1.51,11.6,11.6,0,0,0,7.8-14.45l-13.41-45.81Z"/><path class="cls-33" d="M954.8,2571.82s-43.26,115.68,0,150.86,146.47,74.78,169.52,144.85,62.18,206.24,114.54,254.46c0,0,36.78-3.56,50.55-18.22,0,0-29.82-203.28-49.49-255.44-17-45.17-42.12-110.37-90.21-146.82-13.77-10.43-11.37-27-5-43l11.63-29.23Z"/><path class="cls-34" d="M1406,2481.15c-72.54,4.38-49.94-111.51-48.63-116.12l-110.09,77.76s5.82,62,97.36,94.48c23.16,8.23,44.32,8.59,63,4.57A100.23,100.23,0,0,1,1406,2481.15Z"/><path class="cls-35" d="M1546.26,2446.27c-27-18.8-57.66,0-57.66,0-36.14,23.64-62.88,33.69-82.6,34.88a100.23,100.23,0,0,0,1.67,60.69c40.49-8.7,69.46-38,82-53a13.06,13.06,0,0,1,18.09-2c5.63,4.44,11.1,10.53,10.11,16.93-2,12.63,12.7,16.65,13.81,12.07s-5-31.74-5-31.74,29.32,29.48,40.76,40.81,25.84,0,25.84,0S1573.29,2465.08,1546.26,2446.27Z"/><path class="cls-36" d="M1067.76,2186.06s105.53-42.25,301.93,119.89c0,0,16.4,34-1.49,64.18s-188.42,177.49-211.85,259.15c0,0-101.59,33-206.65-45.26C949.7,2584,959,2356.73,1067.76,2186.06Z"/><path class="cls-37" d="M1276.38,2148.35l-52,63a20.69,20.69,0,0,0-2.72,22.23c7.21,14.71,24.32,36.12,62.26,33.16a31.89,31.89,0,0,0,26.22-17.88l36.32-75.09Z"/><path class="cls-38" d="M986.06,2455.79c-12.25-49.9,111.84-161.13,111.84-161.13l-30.14-108.6s-268,178.38-199.66,321.82c9.79,20.57,22.79,35,37.86,44.6C927.54,2494.41,961.92,2467.77,986.06,2455.79Z"/><path class="cls-39" d="M986,2448.52a2.93,2.93,0,0,1-2.84-2.23c-12.53-51,107.61-159.41,112.73-164a2.94,2.94,0,0,1,3.92,4.37c-1.23,1.1-122.65,110.62-111,158.24a2.93,2.93,0,0,1-2.15,3.55A2.74,2.74,0,0,1,986,2448.52Z"/><path class="cls-40" d="M1174,2451.49s-147.12,57.12-183,14.16a24.18,24.18,0,0,1-4.91-9.86c-24.14,12-58.52,38.62-80.1,96.69,77.38,49.45,209.64-27.5,245.4-50.19a26.7,26.7,0,0,1,19.77-3.62c13.79,2.86,37.62,7.06,50.47,5.08,18.8-2.89,45.8,63.42,76.28,43C1297.88,2546.72,1271.78,2431.44,1174,2451.49Z"/><path class="cls-41" d="M1401.84,2092.08s-7.63,68-22.46,97.42-19.35,51.5-55.64,38.26-54.63-45.68-53.32-82.77c0,0,1.62-57.37,17.23-72.26S1401.84,2092.08,1401.84,2092.08Z"/><path class="cls-42" d="M1293.45,2131.05l4.17,2.4s3.11-45.14,21.77-42.64,85.49,24.73,110.61,10.94c24.22-13.3,28.34-46.11,16-63.06a2.55,2.55,0,0,0-3.42-.58l-2.87,1.81a2.58,2.58,0,0,1-3.89-2.8h0a2.58,2.58,0,0,0-3.67-2.93c-7.6,4.07-24.23,8.23-56-3-45-15.92-81.42-14.93-98.27,12.82a2.59,2.59,0,0,1-4.53-.16c-1.95-3.56-6.26-7.19-15.8-5.49-16.59,3-26,30-13.09,64.13a2.56,2.56,0,0,1-2.17,3.53c-6.11.34-16.69,3.41-4.81,22.45,12.15,19.49,23.12,24.45,27.62,25.7a2.59,2.59,0,0,0,3-1.34L1281,2127a2.59,2.59,0,0,1,3.6-1.09Z"/><path class="cls-43" d="M1291.48,2136.85s11-39.91-10.21-39.14-14.32,43.55-2.56,52.06Z"/><path class="cls-44" d="M1249.38,2564.13l.71,0,308.69-.34a13.82,13.82,0,1,0,0-27.63l-308.69.34a13.81,13.81,0,0,0-.68,27.61Z"/><path class="cls-45" d="M1836.27,2283.86H1579.2a49,49,0,0,0-44.32,28.1L1416,2564h319.47a29.78,29.78,0,0,0,27.7-18.84l92.16-233.19A20.54,20.54,0,0,0,1836.27,2283.86Z"/><ellipse class="cls-46" cx="1674.44" cy="2419.28" rx="32.92" ry="20.25" transform="matrix(0.31, -0.95, 0.95, 0.31, -1141.52, 3271.95)"/><path class="cls-47" d="M1794.6,3226.21a13.45,13.45,0,0,0,5.12-1,12.41,12.41,0,0,0,6.79-16.5l-272-612.27a13.16,13.16,0,0,0-17-6.58,12.42,12.42,0,0,0-6.79,16.5l272.05,612.28A13,13,0,0,0,1794.6,3226.21Z"/><path class="cls-48" d="M1488.12,3226.21a13,13,0,0,0,11.92-7.6l272-612.28a12.42,12.42,0,0,0-6.79-16.5,13.13,13.13,0,0,0-17,6.58l-272,612.27a12.41,12.41,0,0,0,6.79,16.5A13.41,13.41,0,0,0,1488.12,3226.21Z"/><path class="cls-49" d="M952.48,3226.21a13.41,13.41,0,0,0,5.12-1,12.41,12.41,0,0,0,6.79-16.5l-272-612.27a13.14,13.14,0,0,0-17-6.58,12.42,12.42,0,0,0-6.79,16.5l272,612.28A13,13,0,0,0,952.48,3226.21Z"/><path class="cls-50" d="M646,3226.21a13,13,0,0,0,11.92-7.6L930,2606.33a12.42,12.42,0,0,0-6.79-16.5,13.13,13.13,0,0,0-17,6.58l-272,612.27a12.41,12.41,0,0,0,6.79,16.5A13.41,13.41,0,0,0,646,3226.21Z"/><path class="cls-51" d="M614.1,2577.5a14.93,14.93,0,0,1,2.58-11.32,11.77,11.77,0,0,1,9.44-5H1863.75a13.78,13.78,0,0,1,11.86,7.27,17.43,17.43,0,0,1,.93,15.11l-13.42,32.5c-3.07,7.44-9.72,12.21-17,12.21H634.61c-6.81,0-12.67-5.41-14-12.9Z"/></g></svg>